<?xml version="1.0" encoding="utf-8"?>
<!-- Generator: Adobe Illustrator 23.0.3, SVG Export Plug-In . SVG Version: 6.00 Build 0)  -->
<svg version="1.1" id="Layer_1" xmlns:sketch="http://www.bohemiancoding.com/sketch/ns"
	 xmlns="http://www.w3.org/2000/svg" xmlns:xlink="http://www.w3.org/1999/xlink" x="0px" y="0px" viewBox="0 0 96 120"
	 style="enable-background:new 0 0 96 120;" xml:space="preserve">
<style type="text/css">
	.st0{fill-rule:evenodd;clip-rule:evenodd;fill:#5E58FF;}
</style>
<title>Rectangle 39</title>
<desc>Created with Sketch.</desc>
<g sketch:type="MSPage">
	<g sketch:type="MSArtboardGroup">
		<path sketch:type="MSShapeGroup" class="st0" d="M48,66c9.9,0,18-8.1,18-18s-8.1-18-18-18s-18,8.1-18,18S38.1,66,48,66z M44,8h8
			v16h-8V8z M44,72h8v16h-8V72z M72,52v-8h16v8H72z M8,52v-8h16v8H8z M16.9,22.5l5.7-5.7l11.3,11.3l-5.7,5.7L16.9,22.5z M62.1,67.8
			l5.7-5.7l11.3,11.3l-5.7,5.7L62.1,67.8z M67.8,33.9l-5.7-5.7l11.3-11.3l5.7,5.7L67.8,33.9z M22.5,79.1l-5.7-5.7l11.3-11.3l5.7,5.7
			L22.5,79.1z"/>
	</g>
</g>
</svg>
