<?xml version="1.0" encoding="utf-8"?>
<!-- Generator: Adobe Illustrator 23.0.3, SVG Export Plug-In . SVG Version: 6.00 Build 0)  -->
<svg version="1.1" id="Layer_1" xmlns="http://www.w3.org/2000/svg" xmlns:xlink="http://www.w3.org/1999/xlink" x="0px" y="0px"
	 viewBox="0 0 24 30" style="enable-background:new 0 0 24 30;" xml:space="preserve">
<style type="text/css">
	.st0{fill:#5E58FF;}
</style>
<title>Alerts alt 1</title>
<g>
	<path class="st0" d="M12,22c5.5,0,10-4.5,10-10S17.5,2,12,2S2,6.5,2,12S6.5,22,12,22z M11,7c0-0.6,0.4-1,1-1s1,0.4,1,1v7
		c0,0.6-0.4,1-1,1s-1-0.4-1-1V7z M12,16c0.6,0,1,0.4,1,1s-0.4,1-1,1s-1-0.4-1-1S11.4,16,12,16z"/>
</g>
</svg>
