<?xml version="1.0" encoding="utf-8"?>
<!-- Generator: Adobe Illustrator 23.0.3, SVG Export Plug-In . SVG Version: 6.00 Build 0)  -->
<svg version="1.1" id="Layer_1" xmlns="http://www.w3.org/2000/svg" xmlns:xlink="http://www.w3.org/1999/xlink" x="0px" y="0px"
	 viewBox="0 0 24 30" style="enable-background:new 0 0 24 30;" xml:space="preserve">
<style type="text/css">
	.st0{fill:#5E58FF;}
</style>
<title>Calendar - add</title>
<g>
	<path class="st0" d="M19,14c-2.8,0-5,2.2-5,5s2.2,5,5,5s5-2.2,5-5S21.8,14,19,14z M21,20h-1v1c0,0.6-0.4,1-1,1s-1-0.4-1-1v-1h-1
		c-0.6,0-1-0.4-1-1s0.4-1,1-1h1v-1c0-0.6,0.4-1,1-1s1,0.4,1,1v1h1c0.6,0,1,0.4,1,1S21.6,20,21,20z"/>
	<path class="st0" d="M3,22h9.7c-1.6-3.5-0.1-7.7,3.4-9.3c1.9-0.9,4.1-0.9,5.9,0V9H0v10C0,20.7,1.3,22,3,22z M11,12c0.6,0,1,0.4,1,1
		s-0.4,1-1,1s-1-0.4-1-1S10.4,12,11,12z M6,12c0.6,0,1,0.4,1,1s-0.4,1-1,1s-1-0.4-1-1S5.4,12,6,12z M6,17c0.6,0,1,0.4,1,1
		s-0.4,1-1,1s-1-0.4-1-1S5.4,17,6,17z"/>
	<path class="st0" d="M7,1c0-0.6-0.4-1-1-1S5,0.4,5,1v1h2V1z"/>
	<path class="st0" d="M17,1c0-0.6-0.4-1-1-1c-0.6,0-1,0.4-1,1v1h2V1z"/>
	<path class="st0" d="M22,5c0-1.7-1.3-3-3-3h-2v1c0,0.6-0.4,1-1,1c-0.6,0-1-0.4-1-1V2H7v1c0,0.6-0.4,1-1,1S5,3.6,5,3V2H3
		C1.3,2,0,3.3,0,5v2h22V5z"/>
</g>
</svg>
