<?xml version="1.0" encoding="utf-8"?>
<!-- Generator: Adobe Illustrator 23.0.3, SVG Export Plug-In . SVG Version: 6.00 Build 0)  -->
<svg version="1.1" id="Layer_1" xmlns="http://www.w3.org/2000/svg" xmlns:xlink="http://www.w3.org/1999/xlink" x="0px" y="0px"
	 viewBox="0 0 1024 1280" style="enable-background:new 0 0 1024 1280;" xml:space="preserve">
<style type="text/css">
	.st0{fill:#02F7C4;}
	.st1{fill:#5E58FF;}
</style>
<circle class="st0" cx="467.3" cy="773.1" r="203.3"/>
<g>
	<ellipse class="st1" cx="578.3" cy="720.4" rx="55.7" ry="52.9"/>
	<path class="st1" d="M532.6,784.2c-0.7-2.4-1.8-4.4-3.2-6.1c-6.1-21.8-26.6-37.9-51.4-37.9h-65.8c-29.5,0-53.2,22.5-53.2,50.5
		c0,9.2,2.5,18.1,7.2,25.6c0,1,0.4,2.4,0.4,3.4l0,0l4.3,19.1h-32.4c-13.3,0-24.4,10.2-24.4,23.2s11.1,23.2,24.4,23.2h63.3
		c7.6,0,14.4-3.1,19.1-8.9c4.7-5.5,6.5-12.6,4.7-19.8l-3.6-15.7h55.7c7.2,0,13.7-1.4,20.1-3.8l10.1,32.1
		c3.2,10.2,12.9,16.7,23.4,16.7c2.2,0,4.7-0.3,6.8-1c12.9-3.8,20.5-16.7,16.5-29L532.6,784.2z"/>
</g>
</svg>
