<?xml version="1.0" encoding="utf-8"?>
<!-- Generator: Adobe Illustrator 23.0.3, SVG Export Plug-In . SVG Version: 6.00 Build 0)  -->
<svg version="1.1" id="Layer_1" xmlns="http://www.w3.org/2000/svg" xmlns:xlink="http://www.w3.org/1999/xlink" x="0px" y="0px"
	 viewBox="0 0 24 30" style="enable-background:new 0 0 24 30;" xml:space="preserve">
<style type="text/css">
	.st0{fill:#5E58FF;}
</style>
<title>Delete alt 3</title>
<g>
	<path class="st0" d="M20,3h-4c0-1.7-1.3-3-3-3h-2C9.3,0,8,1.3,8,3H4C2.9,3,2,3.9,2,5v1c0,1.1,0.9,2,2,2h16c1.1,0,2-0.9,2-2V5
		C22,3.9,21.1,3,20,3z"/>
	<path class="st0" d="M8,24V9H4v12c0,1.7,1.3,3,3,3H8z"/>
	<rect x="10" y="9" class="st0" width="4" height="15"/>
	<path class="st0" d="M20,21V9h-4v15h1C18.7,24,20,22.7,20,21z"/>
</g>
</svg>
