<?xml version="1.0" encoding="utf-8"?>
<!-- Generator: Adobe Illustrator 23.0.3, SVG Export Plug-In . SVG Version: 6.00 Build 0)  -->
<svg version="1.1" id="Layer_1" xmlns="http://www.w3.org/2000/svg" xmlns:xlink="http://www.w3.org/1999/xlink" x="0px" y="0px"
	 viewBox="0 0 1024 1280" style="enable-background:new 0 0 1024 1280;" xml:space="preserve">
<style type="text/css">
	.st0{fill:#02F7C4;}
	.st1{fill:#5E58FF;}
</style>
<circle class="st0" cx="467.3" cy="773.1" r="203.3"/>
<path class="st1" d="M588.3,799.5c-8.4-7.8-19-13.7-30.5-17c0,0.1,0,0.2-0.1,0.3c-0.4,1.7-0.8,3.4-1.3,5.1c-0.1,0.4-0.2,0.7-0.3,1.1
	c-0.5,2.2-1.1,4.4-1.6,6.5c-2.1,8.7-4.3,17.3-6.4,26c0.4,0.2,0.8,0.3,1.2,0.5c7.9,3.5,12.6,11.5,11.6,19.2c0,0.1,0,0.3-0.1,0.4
	c0,0.2,0,0.3-0.1,0.5c-1.5,8.8-10.1,15.4-20,16c-9.1,0.5-17.7-4.5-21.1-12c-3.3-7.2-1.2-15.9,5.3-21.1c3.4-2.8,7.7-4.5,12.1-4.9
	c0.3-1.2,0.6-2.3,0.9-3.5c2-7.8,3.9-15.7,5.8-23.6c0.5-2.2,1.1-4.3,1.6-6.5c0.5-2.2,1.1-4.3,1.6-6.5c0,0,0,0,0,0
	c-2.9-0.4-5.9-0.7-8.9-0.8c-3.2-0.1-6.3-0.1-9.5-0.1c-0.6,0-1.1,0-1.7,0c-0.5,0-0.9,0-1.3-0.1c-0.1,0-0.5-0.1-0.7-0.1l0,0h0
	c0,0-0.1,0-0.1,0c-0.4-0.1-0.8-0.1-1.2-0.2c-0.7-0.2-1.4-0.3-2.1-0.5c-0.4-0.1-1.3-0.5-1.3-0.4c-1.3-0.6-2.6-1.2-3.8-1.9
	c-0.2-0.1-0.3-0.2-0.4-0.3l0,0c-0.1-0.1-0.2-0.2-0.4-0.3c-0.5-0.4-1-0.8-1.5-1.2c-0.5-0.4-0.9-0.9-1.4-1.3c-0.2-0.2-0.3-0.3-0.3-0.3
	l0,0c-0.1-0.1-0.2-0.2-0.3-0.4c-0.8-1-1.4-2.1-2.1-3.2c0-0.1-0.1-0.1-0.1-0.2l0,0c0,0,0-0.1,0-0.2c-0.1-0.3-0.3-0.6-0.3-1
	c-0.5-1.7-0.8-3.5-1.1-5.2c14.5-11.4,24.5-27.6,27.2-44.7c1.2-7.6,1.2-15.4,1.1-23.1c0.8,0.3,1.6,0.5,2.4,0.5c0.8,0,1.5-0.2,2.2-0.4
	c0,0,0.1,0,0.1,0c1-0.4,1.9-1,2.6-2c0.4-0.6,0.6-1.4,0.7-2.1c0-0.1,0-0.3,0.1-0.4c2.4-18.1-0.1-37.5-13.3-52.1
	c-8.1-9.1-20.3-15.2-33.3-16.5c-3.3-0.3-7.5-0.4-10.9,0.8c-13.2-4.7-27.5-7.4-41.7-5.6c-11,1.4-21.1,6-29.1,12.8
	c-7.1,6-12.4,13.5-16.4,21.4c-3.4,6.8-6,14-7.8,21.3c-0.9,3.8-2,7.9-2.1,11.7c0,0.1,0,0.1,0,0.2c-0.2,2,1.9,4.4,4.1,4.8
	c2.2,0.4,4.4,0.7,6.6,1v7.7c0,4.9-0.2,9.8,0.3,14.7c1.8,18,10.6,34.5,24.7,47.1c0,0,0,0.1,0,0.1c-0.1,0.5-0.1,0.9-0.2,1.4
	c0,0.1,0,0.1,0,0.2c-0.4,1-0.4,2.3-0.6,3.4c-0.2,0.8-0.3,1.6-0.5,2.4c-0.2,0.6-0.3,1.1-0.6,1.6c0,0,0,0,0,0c0,0-0.6,1.2-0.8,1.4
	c-0.4,0.6-0.8,1.2-1.2,1.8c-0.2,0.3-0.6,0.8-0.6,0.8c-0.4,0.4-0.8,0.8-1.2,1.2c-0.6,0.5-1.2,1-1.8,1.5c-0.2,0.1-0.3,0.2-0.5,0.3
	c0.1-0.1,0,0-0.2,0.1c-0.1,0-0.2,0.1-0.2,0.2c0.1,0,0.1-0.1,0.2-0.1c-0.1,0-0.2,0.1-0.2,0.1c-1,0.6-2.1,1.2-3.2,1.7
	c-0.2,0.1-1.1,0.4-1.1,0.4c-0.4,0.1-0.7,0.2-1.1,0.3c-1,0.3-2,0.5-3,0.7l0,0c-0.2,0-1.1,0.2-1.3,0.2c-0.7,0-1.3,0.1-2,0.1
	c-2.3,0-4.5,0-6.8,0c-3.9,0-7.9,0.3-11.8,0.8v0c0.5,2.2,0.9,4.3,1.4,6.5s0.9,4.3,1.4,6.5c0.3,1.3,0.5,2.5,0.8,3.8
	c8.1,0,15.9,2.7,22.3,7.1c7,4.9,11.9,12.2,13.2,20.1c0.6,3.4,1.1,6.7,1.6,10.1c0.6,4.1,1.3,8.1,1.9,12.2c0.7,4.3-0.9,8.5-5.4,10.6
	c-2.4,1.1-5.3,1.2-8,1.5c-3,0.4-6-0.6-6.9-3.5c-0.7-2.4,0.9-5.8,3.9-6.2c1.2-0.1,2.3-0.3,3.5-0.4c0.5-0.1,1.1-0.1,1.5-0.2
	c0.1,0,0.2,0,0.3-0.1c0-0.3-0.1-0.6-0.2-0.9c-0.8-4.8-1.5-9.7-2.3-14.5c-0.5-3.4-0.9-6.9-2-10.2c-0.2-0.4-0.3-0.9-0.5-1.3
	c0-0.1-0.3-0.7-0.4-0.8l0,0c-0.3-0.6-0.6-1.1-0.9-1.7c-0.4-0.7-0.8-1.3-1.3-1.9c-0.3-0.4-0.6-0.7-0.9-1.1c0,0-0.1-0.1-0.1-0.1l0,0
	c0,0,0-0.1-0.1-0.1c-1.2-1.3-2.6-2.5-4-3.6c-0.1-0.1-0.8-0.5-0.8-0.5c-0.2-0.1-0.3-0.2-0.5-0.3c-0.8-0.5-1.5-0.9-2.3-1.3
	c-0.9-0.4-1.7-0.8-2.6-1.2l0,0c-0.1,0-1.5-0.5-1.7-0.6c-1.5-0.4-3-0.7-4.5-1c0.1,0-1.3-0.1-1.5-0.1c-0.4,0-0.9,0-1.3-0.1
	c-1,0-1.9,0-2.9,0.1c-0.3,0-0.6,0-0.8,0.1c-0.3,0.1-0.5,0.1-0.8,0.1c-0.7,0.1-1.4,0.2-2.1,0.4c-1.1,0.2-2.2,0.5-3.2,0.9
	c-0.2,0-0.6,0.2-0.7,0.2c0,0,0,0,0,0c-0.3,0.1-0.7,0.3-1,0.4c-1.5,0.7-2.9,1.5-4.3,2.3c-0.1,0.1-0.2,0.1-0.2,0.1c0,0,0,0,0,0
	c-0.2,0.1-0.4,0.3-0.6,0.4c-0.3,0.2-0.5,0.4-0.8,0.6c-0.7,0.6-1.4,1.2-2.1,1.9c-0.2,0.2-0.5,0.4-0.6,0.7c-0.1,0.1-0.6,0.7-0.6,0.7
	c-0.4,0.5-0.8,1-1.1,1.5c-0.5,0.7-1,1.5-1.5,2.3c-0.2,0.3-0.3,0.5-0.5,0.8l0,0l0,0c0,0.1-0.3,0.7-0.4,0.8c-0.6,1.4-1,2.8-1.3,4.3
	c0,0.2-0.1,0.4-0.1,0.6l0,0c0,0.1,0,0.2,0,0.3c0,0.3-0.1,0.6-0.1,0.9c-0.1,0.8-0.1,1.7,0,2.5c0,0.6-0.1,1.9,0.2,2.5
	c-0.1-0.3-0.2-1.1-0.1-0.6c0.6,3.4,1.1,6.9,1.6,10.3c0.6,3.8,1.2,7.7,1.8,11.5c0,0.3,0.1,0.5,0.2,0.8c1.5-0.2,3-0.4,4.5-0.6
	c3-0.4,6,0.6,6.9,3.5c0.7,2.4-0.9,5.8-3.9,6.2c-2.8,0.3-5.9,1.1-8.7,0.9c-4.9-0.4-9-3.6-9.7-8c-0.8-4.8-1.5-9.7-2.3-14.5
	c-0.6-4.1-1.7-8.5-1.7-12.6c0-8.1,3.5-15.9,9.6-21.9c4.3-4.3,9.9-7.3,15.9-9c-0.2-1-0.4-1.9-0.6-2.9c-0.5-2.2-0.9-4.4-1.4-6.6
	c-0.5-2.1-0.9-4.1-1.3-6.2c0-0.1,0-0.3-0.1-0.4c-0.5,0.1-0.9,0.3-1.4,0.4c-16.4,5.1-30.5,15.1-39.6,28.4
	c-7.3,10.7-10.6,22.9-10.6,35.3v49.2c0,3.6,3.5,6.7,7.5,6.7h258c3.5,0,7,0.1,10.5,0c0.2,0,0.3,0,0.5,0c4.1,0,7.5-3.1,7.5-6.7v-50.6
	C608.9,828,601.4,811.7,588.3,799.5z M500.6,783.4c-0.6,0.5-1.2,1-1.9,1.5c-0.2,0.1-0.6,0.4-0.9,0.7c0,0,0.1,0,0.1-0.1
	c0,0-0.1,0.1-0.1,0.1l0,0c0,0,0,0,0,0c0,0,0,0,0,0c-1.2,0.9-2.6,1.6-3.8,2.3c-1.3,0.7-2.6,1.4-3.9,2c-0.7,0.3-1.4,0.6-2,0.9
	c-0.4,0.2-0.9,0.4-1.3,0.5c-0.5,0.2-0.6,0.3-0.6,0.3c-0.5,0.2-1.3,0.3-1.6,0.4c-0.8,0.3-1.6,0.5-2.4,0.7c-1.7,0.5-3.3,0.8-5,1.2
	c-0.8,0.1-1.5,0.3-2.3,0.4c-0.3,0-0.5,0.1-0.8,0.1c-0.1,0-0.2,0-0.4,0c-1.8,0.2-3.6,0.3-5.3,0.3c-1.6,0-3.2,0-4.8-0.1
	c-0.8,0-1.6-0.1-2.4-0.2c-0.3,0-0.6,0-0.9-0.1c0.3,0.1,0.5,0.1,0.6,0.1c-0.1,0-0.3-0.1-0.8-0.2c0.1,0,0.1,0,0.2,0
	c-0.2,0-0.4-0.1-0.5-0.1c-3.3-0.5-6.6-1.2-9.8-2.2c-0.7-0.2-1.4-0.5-2.1-0.7c-0.4-0.1-0.8-0.3-1.1-0.4c-1.5-0.6-3-1.3-4.5-2.1
	c-1.5-0.8-3-1.7-4.5-2.6c-0.3-0.2-0.6-0.4-0.9-0.6c-0.5-0.3-0.6-0.3-0.6-0.3c-0.6-0.4-1.3-1.1-1.6-1.4c-0.9-0.7-1.7-1.4-2.5-2.1
	c3.3-3.2,5.8-6.9,7.1-11.1c0.2-0.6,0.3-1.2,0.5-1.8l0,0c0.3,0.1,0.5,0.3,0.8,0.4c0.5,0.3,0.9,0.5,1.4,0.8c5.3,2.8,10.9,4.9,16.9,6.1
	c0.5,0.1,1.1,0.2,1.6,0.3c0.1,0,0.2,0,0.3,0c0.6,0.1,1.2,0.2,1.8,0.3c0.3,0,0.6,0.1,0.9,0.1l0,0c0.2,0,0.5,0,0.7,0.1
	c0.3,0,0.7,0.1,1.1,0.1c0.1,0,0.1,0,0.2,0c0.2,0,0.3,0,0.5,0c0.2,0,0.3,0,0.5,0c0.3,0,0.6,0,0.9,0c0,0,0,0,0.1,0c0.3,0,0.7,0,1.1,0
	c0.3,0,0.6,0,0.9,0h0.1c0.2,0,0.4,0,0.6,0l0,0c0.2,0,0.4,0,0.6,0c5.5-0.1,10.6-1.1,15.5-2.7c0.3-0.1,0.7-0.2,1-0.3
	c0.4-0.1,0.8-0.3,1.1-0.4s0.8-0.3,1.1-0.4c0.4-0.1,0.7-0.3,1.1-0.4c0.4-0.1,0.7-0.3,1.1-0.5c0.3-0.1,0.6-0.3,0.9-0.4
	c0.1,0,0.2-0.1,0.2-0.1c0.7-0.3,1.4-0.6,2-1c0,0,0,0,0,0c0.2-0.1,0.4-0.2,0.6-0.3c0.1,0.2,0.1,0.4,0.2,0.6c1.4,4,3.8,7.5,6.9,10.6
	C501.6,782.6,501.1,783,500.6,783.4z M507.2,744L507.2,744c-0.3,0.3-0.5,0.5-0.8,0.8c-1.6,1.7-3.3,3.4-5,4.9
	c-1.7,1.5-3.3,2.9-5.1,4.2c-0.4,0.3-0.8,0.5-1.1,0.8c0,0-0.1,0.1-0.2,0.1c-0.1,0-0.1,0.1-0.2,0.1c-0.1,0-0.1,0.1-0.2,0.1l0,0
	c0,0-0.1,0.1-0.1,0.1l0,0c0,0-0.1,0.1-0.2,0.1c0,0,0.1,0,0.1-0.1l0,0l0,0c0,0,0,0-0.1,0s0,0,0,0l0,0l0,0c-0.4,0.3-0.8,0.5-1.2,0.8
	c-0.2,0.1-0.4,0.3-0.6,0.4c-0.1,0.1-0.2,0.1-0.3,0.2c-0.2,0.1-0.4,0.2-0.5,0.3c-0.2,0.1-0.4,0.3-0.6,0.4c-0.1,0.1-0.2,0.1-0.2,0.1
	c-0.2,0.1-0.3,0.2-0.4,0.2c0,0,0,0,0,0c-0.4,0.2-0.7,0.4-1.1,0.6c-0.3,0.2-0.7,0.4-1.1,0.6c0,0,0,0,0,0c-0.2,0.1-0.3,0.2-0.5,0.2
	c-0.1,0.1-0.2,0.1-0.3,0.2c-0.1,0-0.1,0.1-0.2,0.1c0,0-0.1,0.1-0.2,0.1c-0.1,0-0.2,0.1-0.2,0.1l0,0c-0.3,0.1-0.5,0.3-0.8,0.4
	c-0.3,0.2-0.6,0.3-0.9,0.4c0,0-0.1,0-0.1,0.1c-0.2,0.1-0.3,0.1-0.5,0.2c-0.3,0.1-0.5,0.2-0.8,0.3c0,0-0.1,0-0.2,0.1c0,0-0.1,0-0.1,0
	c-0.1,0-0.2,0.1-0.4,0.2c-0.1,0-0.2,0.1-0.3,0.1l0,0c0,0,0,0-0.1,0s-0.1,0-0.2,0s-0.1,0-0.1,0l0,0c0,0,0,0,0,0l0,0l0,0c0,0,0,0,0,0
	c0,0,0,0,0,0c-0.4,0.1-0.8,0.3-1.2,0.4c-1.5,0.5-2.9,0.8-4.4,1.1c-0.6,0.1-1.3,0.3-1.9,0.4c0,0-0.3,0-0.6,0.1c0,0,0,0-0.1,0
	c0,0,0,0-0.1,0c0.2,0,0.2,0-0.2,0c0,0,0,0,0,0h0c1-0.1-0.9,0.2,0,0h0l0,0c-0.1,0-0.2,0-0.2,0c0,0,0.1,0,0.1,0c0,0-0.1,0-0.1,0
	c-0.1,0-0.3,0-0.4,0c0,0-0.1,0-0.1,0c-0.1,0-0.2,0-0.2,0c-0.4,0-0.8,0.1-1.2,0.1c-0.2,0-0.3,0-0.5,0c-0.1,0-0.2,0-0.3,0
	c-0.1,0-0.2,0-0.3,0c-0.3,0-0.6,0-0.8,0s-0.6,0-0.8,0c-0.7,0-1.3,0-2,0c-0.3,0-0.6,0-1-0.1c-0.3,0-0.6,0-1-0.1c-0.2,0-0.5,0-0.7-0.1
	h0c-0.1,0-0.3,0-0.6-0.1c0.2,0,0.3,0,0.5,0c-0.1,0-0.2,0-0.2,0c-0.1,0-0.1,0-0.2,0c-0.1,0-0.3,0-0.4-0.1c-1.2-0.2-2.3-0.4-3.5-0.7
	c-0.9-0.2-1.9-0.5-2.9-0.8c0,0-0.1,0-0.1,0c-0.3-0.1-0.6-0.2-0.8-0.3c0,0,0,0,0,0c0,0-0.1,0-0.1,0c0,0,0,0-0.1,0
	c-0.2-0.1-0.4-0.1-0.6-0.2c0,0,0,0,0,0s0.1,0,0.1,0c0,0,0,0,0,0l0,0c-0.1,0-0.2-0.1-0.4-0.2c0,0,0.1,0,0.1,0h0c0,0,0,0,0,0
	c-0.1,0-0.1,0-0.2-0.1c0,0,0,0,0,0l0,0l0,0c-0.4-0.2-0.8-0.3-1.2-0.5c-0.2-0.1-0.4-0.2-0.5-0.2c0,0,0,0-0.1,0c0,0-0.1,0-0.1-0.1
	c-0.2-0.1-0.4-0.2-0.6-0.3c-1.6-0.8-3.1-1.6-4.6-2.4c-0.3-0.2-0.6-0.3-0.9-0.5c-0.2-0.1-0.3-0.2-0.5-0.3c-0.1-0.1-0.2-0.1-0.4-0.2
	c-0.2-0.1-0.4-0.2-0.6-0.4c-0.2-0.1-0.4-0.3-0.6-0.4c-0.2-0.1-0.3-0.2-0.5-0.3c0,0,0,0-0.1-0.1c0,0-0.1-0.1-0.2-0.1
	c-0.1,0-0.1-0.1-0.2-0.1c0,0,0,0-0.1-0.1c0,0,0,0,0,0c-0.2-0.1-0.3-0.2-0.4-0.2c0,0,0.1,0.1,0.2,0.1c0,0,0,0-0.1,0
	c0.8,0.6-0.9-0.5-0.2-0.1l0,0c0,0,0,0,0,0l0,0c0,0,0,0,0,0l0,0c0,0-0.1-0.1-0.2-0.1l0,0c0,0-0.1-0.1-0.2-0.1
	c-0.2-0.2-0.5-0.3-0.7-0.5c-0.2-0.1-0.4-0.3-0.5-0.4c-0.5-0.4-1-0.7-1.4-1.1c-0.3-0.3-0.6-0.5-0.9-0.8l0,0c-0.6-0.5-1.1-0.9-1.7-1.4
	c-1.9-1.6-3.7-3.3-5.4-5.1c-0.4-0.5-0.8-0.9-1.2-1.4c0,0-0.1-0.1-0.1-0.1c0,0,0,0.1,0.1,0.1c0,0-0.1-0.1-0.1-0.1l0,0l0,0l0,0l0,0
	c0,0,0,0,0,0c0,0,0,0,0,0l0,0c0,0,0-0.1-0.1-0.1l0,0c-0.8-1-1.6-2-2.4-3c-1.4-1.9-2.8-3.9-4-5.9c-0.6-1-1.2-2-1.7-3.1
	c-0.3-0.5-0.5-1-0.8-1.6c0,0,0-0.1,0-0.1c0,0,0,0.1,0,0.1c-0.1-0.2-0.2-0.4-0.2-0.5c0,0.1,0.1,0.1,0.1,0.2c-0.1-0.3-0.3-0.5-0.4-0.8
	c-2-4.5-3.4-9.1-4.2-13.9c0-0.1-0.2-0.8-0.2-1.1c0,0,0,0,0,0.1c0,0,0-0.1,0-0.1v0c-0.1-0.6-0.2-1.1-0.2-1.7
	c-0.2-1.4-0.3-2.7-0.3-4.1c0-1,0-1.9,0-2.9v-14.7c11.4,0.2,22.9-1,33.5-3.8c12.3-3.2,23.9-8.9,32.9-17.1c2.5-2.3,4.8-4.7,6.9-7.3
	c4.8,0.3,9.2,0.7,13.7,2.1c1.2,0.4,2.4,0.7,3.7,1c0.4,0.1,0.9,0.2,1.3,0.4l0,0c0.1,0.1,1,0.4,1.2,0.5c1.1,0.5,2.1,1.1,3.1,1.7
	c0.2,0.1,0.6,0.4,0.8,0.5c0,0,0,0,0,0l0,0l0,0l0,0l0,0c0.5,0.4,1,0.7,1.5,1.1c0.9,0.8,1.9,1.6,2.7,2.5c0.3,0.3,0.5,0.5,0.7,0.8
	c0,0,0.2,0.2,0.3,0.3c0,0,0-0.1-0.1-0.1c0,0,0,0,0.1,0.1c0,0,0,0.1,0.1,0.1l0,0c0.1,0.1,0.2,0.2,0.2,0.2c0.3,0.3,0.5,0.7,0.8,1
	c0.7,0.9,1.4,1.9,2,2.9c0.3,0.4,0.5,0.9,0.7,1.3c-0.1-0.1,0.4,0.9,0.5,1.2c0.1,0.2,0.2,0.4,0.2,0.7c-0.8,1-1.2,2.2-1.2,3.6
	c0,7.5,0.1,15.1,0,22.6c0,2.1-0.2,4.2-0.5,6.3c0,0.1-0.1,0.5-0.1,0.8l0,0c0,0,0,0,0,0.1c0,0.3-0.1,0.7-0.2,1
	c-0.2,1.2-0.5,2.4-0.8,3.6c-0.5,2-1.1,4-1.8,6c-0.3,1-0.7,2-1.1,2.9c-0.2,0.5-0.4,1-0.6,1.4c-0.1,0.2-0.5,1.3-0.6,1.4
	c0,0,0-0.2,0.2-0.5c-1.5,3.7-4.1,7.4-6.5,10.6c-0.6,0.8-1.3,1.7-2,2.5C507.7,743.5,507.4,743.8,507.2,744z"/>
</svg>
