<?xml version="1.0" encoding="utf-8"?>
<!-- Generator: Adobe Illustrator 23.0.3, SVG Export Plug-In . SVG Version: 6.00 Build 0)  -->
<svg version="1.1" id="Layer_1" xmlns="http://www.w3.org/2000/svg" xmlns:xlink="http://www.w3.org/1999/xlink" x="0px" y="0px"
	 viewBox="0 0 24 30" style="enable-background:new 0 0 24 30;" xml:space="preserve">
<style type="text/css">
	.st0{fill:#5E58FF;}
</style>
<title>home alt 5</title>
<g>
	<path class="st0" d="M4,21.2C4.1,21.7,4.5,22,5,22h4v-3c0-1.7,1.3-3,3-3s3,1.3,3,3v3h4c0.5,0,0.9-0.3,1-0.8l2-10
		c0.1-0.3-0.1-0.7-0.3-0.9l-9-8c-0.4-0.3-1-0.3-1.3,0l-9,8c-0.3,0.2-0.4,0.6-0.4,0.9L4,21.2z"/>
	<path class="st0" d="M12,18c-0.6,0-1,0.4-1,1v3h2v-3C13,18.4,12.6,18,12,18z"/>
</g>
</svg>
