<?xml version="1.0" encoding="utf-8"?>
<!-- Generator: Adobe Illustrator 23.0.3, SVG Export Plug-In . SVG Version: 6.00 Build 0)  -->
<svg version="1.1" id="Layer_1" xmlns="http://www.w3.org/2000/svg" xmlns:xlink="http://www.w3.org/1999/xlink" x="0px" y="0px"
	 viewBox="0 0 595.3 841.9" style="enable-background:new 0 0 595.3 841.9;" xml:space="preserve">
<style type="text/css">
	.st0{fill:#FEFEFE;}
	.st1{fill:#E5E6E8;}
	.st2{fill:#5E58FF;}
	.st3{fill:#FDCFAE;}
	.st4{fill:#9E8ACE;}
	.st5{fill:#00F8C4;}
</style>
<g>
	<path class="st0" d="M174.8,421.9c0-90.4,0-180.7-0.1-271.1c0-2.6,0.3-3.6,3.3-3.6c80.6,0.1,161.2,0.1,241.8,0
		c2.8,0,3.2,0.7,3.2,3.3c-0.1,180.8-0.1,361.7,0,542.5c0,3-0.9,3.4-3.5,3.4c-80.5-0.1-161-0.1-241.4,0c-2.9,0-3.4-0.7-3.4-3.5
		C174.8,602.6,174.8,512.3,174.8,421.9z M311.1,301.7c-1.7,1.8-3.4,3.6-5.1,5.4c-11.6,1.6-22.5,5.3-30.3,14.4
		c-12.9,14.9-25,30.5-35.5,47.2c-2.4,3.8-5.9,7.2-6,12.2c-0.5,0.3-1,0.7-1.6,1c-10.3,5.7-12.9,15.5-6.7,25.4c1.3,2.1,3,4,6,3.3
		c1.5,0.8,3.1,1.6,4.9,1.4c5.7-0.4,10.6-2.7,15.3-5.7c7.2-4.7,13.1-11,19.4-16.7c-0.1,1-0.2,2-0.3,3c-1.6,8.5-3.3,17-4.8,25.6
		c-3,16.7-5.9,33.4-8.9,50.2c-2.7,15.3-5.6,30.5-8.3,45.7c-3.6,19.6-7.1,39.3-10.8,58.9c-0.3,1.5,0,2.5,1.2,3.1
		c2.7,1.2,5.5,2.3,8.3,3.4c6.7,2.6,13.8,3.9,20.7,5.8c-2.5,20.2-5,40.4-7.4,60.6c-0.4,3-1.1,4.6-4.5,5c-5.1,0.7-10.1,2-15,3.4
		c-7.4,2.1-14.9,4.2-21.2,9.1c-0.8,0.7-1.7,1.4-2.5,2.2c-0.5,0.5-1.2,1.1-0.8,1.9c0.3,0.7,1.1,0.4,1.7,0.5
		c17.4,0.7,34.7,1.4,52.1,2.1c3.6,0.2,4-1.5,3.1-4.4c0.2-4.1,0.5-8.2,0.5-12.4c0-2.4,0.8-3.2,3.1-2.8c2.6,0.5,3.4-0.7,3.9-3.1
		c1-5.4,2.4-10.7,3.6-16c11.2-47.9,22.5-95.8,33.5-143.7c0.9-4,2.9-3.6,5.7-3.5c3.7,0.1,2.5,2.8,2.5,4.6
		c0.1,37.2,0.2,74.5,0.3,111.7c0,16.7,0,33.5,0.1,50.2c0,1.5-0.5,3.6,2.2,3.2c2.6-0.4,2.6,1,2.1,2.9c-1,3.7-1.9,7.4-2.8,11.1
		c-1.3,2.3-1.5,3.8,2,3.9c18.8,0.6,37.6,1.4,56.3,2.1c2,0.1,2.6-0.5,1.4-2.3c-0.6-0.9-1.2-1.9-2.4-2.2c-2.1-2.2-4.7-3.7-7.4-5
		c-8.6-4.4-17.7-7.3-26.9-10c-0.8-0.2-2.2,0.1-2-1.6c2.5-20.9,4.1-41.9,5.8-62.8c1.5-0.2,2.9-0.6,4.4-0.7c10.1-0.5,19.9-3,29.5-6.1
		c2.3-0.8,3.2-2,2.9-4.3c-0.6-4.7-1.1-9.4-1.5-14.1c-1.1-12.5-2.1-25-3-37.5c-1-12.5-2-25-2.8-37.5c-0.9-12.6-1.8-25.3-2.3-38
		c-0.5-10.7-1.4-21.4-0.9-32.1c1.7,0.3,3.5-0.2,5.2,0.6c3.7,4.5,10.6,5.7,17.9,3.2c5.8-2,8.9-6.1,10-11.9c1.1-5.8,1-11.2-4.7-14.9
		c0.2-4.3-1.7-8.2-2.7-12.3c-3.2-13.3-7.8-26.2-13.2-38.7c-4.9-11.3-9.7-23-21.7-29.3c-5.7-3-11.3-6.3-17.9-6.9
		c-2-5.1-6-6.8-11.1-6.6c0-0.6,0-1.1-0.1-1.7c7.1-2.5,13.9-5.6,17.7-12.7c0.8,0.1,1.5-0.2,2.1-0.7c6.6-5.6,11.6-12.3,12.4-21.3
		c0.1-1.2-0.1-2.4,1.7-2.8c6.5-1.2,9.5-5.3,9.9-11.7c0.4-6.6,2.6-13.4-2.8-19.1c3.3-12.9,4.9-25.9,4-39.3
		c-0.7-11.6-5.8-20.3-16.1-25.7c-19.5-10.1-40.3-11.5-61.6-9c-5.1,0.6-9.6-0.1-13.9-2.7c-2.6-1.6-3.7-1.1-4.4,2
		c-0.7,2.6,1.1,4.6,1.5,7.2c-2.9,0.3-5.2-0.8-7.5-1.6c-1.9-0.7-2.4,0-2.4,1.8c0.1,3.7,1.7,6.8,4.8,9.7c-2.6-0.2-4.5-0.4-7-0.6
		c1.8,2.8,3.6,4.9,5.9,6.4c2,1.3,2.6,2.8,2.1,5.3c-2.2,11.2-3,22.5-3.3,33.9c-0.1,1.9-0.3,3.8-0.4,5.8c-1.8,0.7-2.9,2.1-3,3.9
		c-0.2,7.3-4.5,14.7,0.6,21.9c0.6,0.8-0.3,1.7-0.1,2.5c-1.3,8.3-2.3,16.5-0.5,24.8c1.7,8.2,5.8,14.3,13.6,17.9
		c4.6,2.1,9.3,3.4,14.2,4.5C311,301.4,311.1,301.7,311.1,301.7z"/>
	<path class="st1" d="M268.4,585.2c-6.9-1.9-14-3.2-20.7-5.8c-2.8-1.1-5.6-2.2-8.3-3.4c-1.2-0.6-1.5-1.6-1.2-3.1
		c3.7-19.6,7.2-39.3,10.8-58.9c2.8-15.3,5.6-30.5,8.3-45.7c3-16.7,5.9-33.4,8.9-50.2c1.5-8.5,3.2-17,4.8-25.6c0.2-1,0.2-2,0.3-3
		c2-2.2,2.9-5.7,6.6-5.9c6.7-0.4,12.6-2.4,17.6-7c2.6,7.9,5.3,15.8,7.7,23.8c1.9,6.3,4.9,12.3,5.2,19c-2,9.8-2.4,19.8-3.9,29.6
		c-0.2,1.3,0,2.6,1.6,2.8c6.9,0.7,13.8,2,20.8,1.7c1.3,0,2.2-0.4,1.9-2c-1.1-7.7-0.2-15.4-0.8-23.2c0.6-0.2,1.1-0.5,1.7-0.6
		c9.6-1.3,19.3-2.5,28.9-3.8c4-0.5,5.1-2.1,4.5-6.1c-0.1-1-0.3-2-0.4-3c0.7-0.2,1.5-0.8,2.1-0.6c5.6,1.6,11.1,3.3,16.7,5
		c-0.5,10.7,0.4,21.4,0.9,32.1c0.6,12.7,1.5,25.3,2.3,38c0.8,12.5,1.9,25,2.8,37.5c1,12.5,2,25,3,37.5c0.4,4.7,0.9,9.4,1.5,14.1
		c0.3,2.4-0.5,3.6-2.9,4.3c-9.6,3.1-19.3,5.6-29.5,6.1c-1.5,0.1-2.9,0.5-4.4,0.7c-4.4,0-8.7-0.1-13.1,0c-2.5,0.1-3.4-0.7-3.7-3.3
		c-2.9-30.8-5.3-61.7-7.3-92.7c-0.7-10.3-1.2-20.7-1.7-31.1c-0.1-2.3-0.5-3.6-3.4-3.6c-6.8,0.1-13.4-1-20-2.4c-2-0.4-2.6,0-2.8,2
		c-0.8,7.3-1.8,14.6-2.7,21.9c-4.5,34.7-9.1,69.3-13.5,104c-0.3,2.5-1.2,3.2-3.6,2.8C278.6,586.7,273.5,586,268.4,585.2z"/>
	<path class="st2" d="M268.4,585.2c5.1,0.8,10.1,1.5,15.2,2.3c2.4,0.4,3.3-0.3,3.6-2.8c4.5-34.7,9-69.3,13.5-104
		c1-7.3,1.9-14.6,2.7-21.9c0.2-2,0.8-2.4,2.8-2c6.6,1.4,13.3,2.6,20,2.4c2.8-0.1,3.2,1.3,3.4,3.6c0.5,10.4,1.1,20.7,1.7,31.1
		c2,30.9,4.4,61.8,7.3,92.7c0.2,2.6,1.2,3.4,3.7,3.3c4.4-0.1,8.7,0,13.1,0c-1.7,21-3.3,42-5.8,62.8c-0.2,1.7,1.2,1.4,2,1.6
		c9.2,2.7,18.4,5.5,26.9,10c2.7,1.4,5.3,2.8,7.4,5c-1.9,0.1-3.7,0.3-5.6,0.2c-17.3-0.5-34.5-1.1-51.8-1.7c0.9-3.7,1.8-7.4,2.8-11.1
		c0.5-1.9,0.5-3.2-2.1-2.9c-2.7,0.4-2.2-1.6-2.2-3.2c0-16.7-0.1-33.5-0.1-50.2c-0.1-37.2-0.1-74.5-0.3-111.7c0-1.8,1.2-4.4-2.5-4.6
		c-2.8-0.1-4.8-0.6-5.7,3.5c-11,47.9-22.3,95.8-33.5,143.7c-1.2,5.3-2.6,10.7-3.6,16c-0.5,2.4-1.3,3.6-3.9,3.1
		c-2.3-0.4-3.1,0.4-3.1,2.8c0,4.1-0.3,8.2-0.5,12.4c-17.3-0.5-34.7-1-52-1.5c-0.6,0-1.2-0.2-1.6-0.8c6.3-4.8,13.8-7,21.2-9.1
		c4.9-1.4,9.9-2.7,15-3.4c3.4-0.5,4.1-2,4.5-5C263.4,625.7,266,605.4,268.4,585.2z"/>
	<path class="st2" d="M311,301.4c-4.9-1.1-9.6-2.3-14.2-4.5c-7.8-3.6-11.9-9.7-13.6-17.9c-1.7-8.4-0.7-16.6,0.5-24.8
		c0.5,2.8,0.9,5.6,1.6,8.4c0.5,2.1,1.5,3.3,3.8,1.4c1.3-1,3.1-1.6,4.8-1.9c13.7-2.5,27-1.6,40,3.7c4.7,1.9,8.4,5.4,12.9,7.6
		c5.3,2.6,8.8,1.5,11.4-3.8c1-2,1.8-4.1,2.4-6.3c4.5-17.9,5.7-36.2,5.1-54.6c-0.1-4.4-0.6-8.9-2.7-13c-1.4-2.8-3.3-4.4-6.5-4.8
		c-7.1-0.7-14.2-0.1-21.3,0.2c-12.3,0.5-24.4,0.2-36.1-4c-2.8-1-3.6-0.4-4.4,2.1c-3.4,10.1-5.2,20.5-6.7,31c-0.5,0-0.9-0.1-1.4-0.1
		c0.4-11.4,1.2-22.7,3.3-33.9c0.5-2.5-0.1-4-2.1-5.3c-2.3-1.5-4.1-3.5-5.9-6.4c2.5,0.2,4.4,0.4,7,0.6c-3.1-2.9-4.7-6-4.8-9.7
		c-0.1-1.9,0.4-2.5,2.4-1.8c2.3,0.8,4.6,1.9,7.5,1.6c-0.4-2.5-2.2-4.6-1.5-7.2c0.8-3.1,1.8-3.7,4.4-2c4.3,2.7,8.8,3.4,13.9,2.7
		c21.3-2.6,42.2-1.1,61.6,9c10.3,5.3,15.4,14.1,16.1,25.7c0.8,13.4-0.7,26.4-4,39.3c-1.6-0.5-3.3-1.1-4.9-1.5
		c-4.9-1.2-7.4,0.4-7.7,5.4c-1.4,17.7-3.3,35.3-10.6,51.7c-3.8,7.1-10.6,10.2-17.7,12.7c-8.5,1.7-17,1.9-25.6,1.6
		C315.8,301.6,313.4,301.5,311,301.4z M321,279.4c2.7,0,5.5,0,8.2-0.8c1.6-0.4,3.3-0.7,3.7-2.6c0.4-1.7-1-2.7-2.1-3.7
		c-9.4-7.9-19.9-9.7-31.4-5.6c-2.1,0.8-4.5,1.8-4.5,4.4c0,2.5,2.3,3.4,4.2,4.2C306.1,278.3,313.5,279,321,279.4z"/>
	<path class="st3" d="M288,220.2c1.5-10.5,3.3-20.9,6.7-31c0.8-2.5,1.6-3.2,4.4-2.1c11.7,4.2,23.9,4.5,36.1,4
		c7.1-0.3,14.2-0.9,21.3-0.2c3.2,0.3,5.1,2,6.5,4.8c2.1,4.1,2.6,8.7,2.7,13c0.5,18.4-0.6,36.6-5.1,54.6c-0.5,2.2-1.4,4.3-2.4,6.3
		c-2.6,5.2-6.1,6.4-11.4,3.8c-4.5-2.2-8.2-5.7-12.9-7.6c-13-5.3-26.4-6.2-40-3.7c-1.7,0.3-3.5,0.9-4.8,1.9c-2.4,1.9-3.3,0.7-3.8-1.4
		c-0.7-2.8-1.1-5.6-1.6-8.4c-0.2-0.8,0.7-1.7,0.1-2.5c-5.1-7.1-0.8-14.6-0.6-21.9c0-1.8,1.2-3.2,3-3.9c0.2,1.1,0.4,2.1,0.8,4.2
		C287.4,226.1,287.7,223.2,288,220.2z"/>
	<path class="st1" d="M354.7,309.4c6.6,0.6,12.2,3.9,17.9,6.9c12,6.3,16.8,18,21.7,29.3c5.4,12.5,10,25.4,13.2,38.7
		c1,4.1,2.9,8,2.7,12.3c-8.3-4.1-16.5-4.6-24.2,1.4c-2.5-2.5-2.8-6.2-4.9-9.5c0,4.6,0,8.5,0,12.5c-2.9,0.5-6.3,2.5-8-1.5
		c-1.6-3.6-3.7-6.3-7-8.4c-3.9-2.4-6.6-5.7-6.1-10.8c0.2-2.2-0.8-3-2.8-2.6c-1-6-2.1-12-3.1-18c-0.6-3.4-2.4-4.6-5.8-4
		c-5.4,1-10.7,1.8-16.1,2.7c0.1-0.7,0.2-1.5,0.3-2.2c2-10.3,5.6-20,9.5-29.6c0.6-1,1.1-1.9,1.7-2.9
		C346.8,318.5,349.7,313.1,354.7,309.4z"/>
	<path class="st1" d="M234.2,380.9c0.1-5,3.6-8.5,6-12.2c10.5-16.7,22.7-32.3,35.5-47.2c7.8-9.1,18.7-12.8,30.3-14.4
		c1.4,3.2,2.7,6.4,4.1,9.5c3,14.9,4,30,3.4,45.2c-1.3,0.4-2.5,0.3-3.7-0.1c-0.4-5.3-4.5-8.4-7.4-12.1c-1.5-2-3.8-2.8-6.3-2.5
		c-2.7-2.6-5.3-5.1-8-7.7c-0.7-0.7-1.5-2.2-2.7-0.9c-1,1.2,0.3,2,1,2.8c2,2.1,4.1,4.3,6.1,6.4c-9.6,3.6-16.3,10.1-20,19.7
		c-0.6,1.5-1.5,2.5-3.2,2.9c-9,2.4-17.5,6.2-26.1,9.9C240.1,379.4,237.2,380.3,234.2,380.9z"/>
	<path class="st3" d="M243.3,380.1c8.5-3.7,17-7.4,26.1-9.9c1.6-0.4,2.6-1.4,3.2-2.9c3.7-9.6,10.4-16.1,20-19.7
		c3.1,1.8,4.4,6.5,10.6,5.6c-2.8-2.5-4.9-4.3-7-6.2c2.5-0.3,4.8,0.5,6.3,2.5c2.9,3.8,7,6.8,7.4,12.1c-0.8,1.4-2.3,1.2-3.6,1.5
		c-2.9,0.6-5.9,1-8.8,1.6c-3,0.6-4.2,2.4-3.5,5.4c0.6,2.2,1.2,4.3,1.7,6.4c-5,4.5-10.9,6.6-17.6,7c-3.7,0.2-4.6,3.7-6.6,5.9
		c-6.3,5.8-12.2,12-19.4,16.7c-4.7,3-9.7,5.3-15.3,5.7c-1.8,0.1-3.4-0.6-4.9-1.4c-0.2-0.4-0.4-0.9-0.7-1.3
		c-7.1-8.1-6.6-14.7,1.4-21.9C235.8,384.5,239.9,382.8,243.3,380.1z"/>
	<path class="st3" d="M357.1,377.7c2.1-0.3,3.1,0.5,2.8,2.6c-0.5,5,2.2,8.3,6.1,10.8c3.3,2.1,5.4,4.8,7,8.4c1.7,3.9,5.2,1.9,8,1.5
		c1.2,0,2.4-0.1,3.7-0.1c4.5-0.1,9-0.2,13.5-0.6c2.5-0.3,5.2-0.9,7.7,0.7c3.9,2.5,5.5,6.4,4.4,11c-1.3,5.3-5.3,8.9-10.6,9
		c-4.2,0.1-8.5-0.5-12.7-0.8c-1.6-0.8-3.5-0.4-5.2-0.6c-5.6-1.7-11.1-3.4-16.7-5c-0.6-0.2-1.4,0.4-2.1,0.6c-0.1,0-0.3,0-0.4,0
		c-13.5,4.2-26,2.4-37.4-6.1c-0.9-0.7-2-1.3-1.9-2.6c0.1-1.4,1.4-1.6,2.4-2.1c1.4-0.7,3.1-0.6,4.3-1.7c-2.7-0.7-7.1-0.7-7.1-3
		c0.1-3.1,4.4-3.1,7.2-4c0.4-0.1,0.7-0.1,1.1-0.1c8-1.2,15.9-0.6,23.9,0.2c3.5,0.3,4-0.6,2.7-3.8c-0.3-0.7-0.7-1.3-1-2
		C354.6,385.7,353.9,381.7,357.1,377.7z"/>
	<path class="st3" d="M361.2,288.3c7.4-16.5,9.2-34,10.6-51.7c0.4-4.9,2.9-6.6,7.7-5.4c1.7,0.4,3.3,1,4.9,1.5
		c5.4,5.7,3.2,12.5,2.8,19.1c-0.4,6.4-3.4,10.5-9.9,11.7c-1.8,0.3-1.6,1.6-1.7,2.8c-0.8,9-5.8,15.7-12.4,21.3
		C362.7,288.2,362,288.4,361.2,288.3z"/>
	<path class="st2" d="M386.9,420.2c4.2,0.3,8.5,0.9,12.7,0.8c5.3-0.1,9.3-3.7,10.6-9c1.1-4.6-0.5-8.5-4.4-11c-2.5-1.6-5.1-1-7.7-0.7
		c-4.5,0.4-9,0.5-13.5,0.6c0.4-1,0.8-1.9,1.2-2.9c7.8-6,15.9-5.5,24.2-1.4c5.7,3.6,5.8,9.1,4.7,14.9c-1.1,5.9-4.3,10-10,11.9
		C397.5,425.9,390.6,424.7,386.9,420.2z"/>
	<path class="st3" d="M317.9,302.7c8.6,0.3,17.1,0.1,25.6-1.6c0,0.6,0,1.1,0.1,1.7c1.1,3.3-0.7,5-3.4,6.5c-1.5,0.9-3.5,1.5-3.8,3.7
		c-2.9,4.6-3.1,10.4-6.3,15.2c-2.1-5.4-4-10.2-5.9-15c-0.2-1.5-1.4-2.2-2.4-3.1c-1.8-1.6-4.1-2.8-5.2-5.1
		C318.1,304.9,318,303.8,317.9,302.7z"/>
	<path class="st4" d="M328.6,667.9c17.3,0.6,34.5,1.2,51.8,1.7c1.9,0.1,3.7-0.1,5.6-0.2c1.2,0.3,1.8,1.3,2.4,2.2
		c1.2,1.8,0.6,2.4-1.4,2.3c-18.8-0.7-37.6-1.5-56.3-2.1C327.1,671.7,327.3,670.2,328.6,667.9z"/>
	<path class="st2" d="M316.5,304.9c1.1,2.3,3.5,3.4,5.2,5.1c1,0.9,2.3,1.6,2.4,3.1c-1.4,0.7-1.5,2.1-2,3.4c-1.6,3.8-3.2,7.6-5,12
		c-1.1-1.9-1.9-3.1-2.6-4.4c-1.4-2.6-2.2-5.5-4.6-7.4c-1.4-3.2-2.7-6.4-4.1-9.5c1.7-1.8,3.4-3.6,5.1-5.4
		C312.9,302.8,314.1,304.9,316.5,304.9z"/>
	<path class="st4" d="M220.4,663.4c0.3,0.6,0.9,0.8,1.6,0.8c17.3,0.5,34.7,1,52,1.5c1,2.8,0.5,4.5-3.1,4.4
		c-17.4-0.8-34.7-1.4-52.1-2.1c-0.6,0-1.3,0.2-1.7-0.5c-0.4-0.8,0.3-1.4,0.8-1.9C218.7,664.8,219.6,664.1,220.4,663.4z"/>
	<path class="st2" d="M336.4,312.9c0.4-2.2,2.3-2.8,3.8-3.7c2.6-1.5,4.4-3.2,3.4-6.5c5.2-0.2,9.2,1.5,11.1,6.6
		c-5,3.8-7.9,9.1-11,14.4c-0.6,1-1.1,1.9-1.7,2.9C340.1,322.1,338.3,317.5,336.4,312.9z"/>
	<path class="st2" d="M243.3,380.1c-3.4,2.7-7.5,4.4-10.7,7.3c-8,7.3-8.4,13.8-1.4,21.9c0.3,0.4,0.5,0.9,0.7,1.3
		c-3,0.7-4.7-1.2-6-3.3c-6.2-10-3.6-19.7,6.7-25.4c0.5-0.3,1-0.7,1.6-1C237.2,380.3,240.1,379.4,243.3,380.1z"/>
	<path class="st2" d="M316.5,304.9c-2.4-0.1-3.7-2.1-5.4-3.2c0,0-0.1-0.3-0.1-0.3c2.4,0,4.8,0.2,6.9,1.3
		C318,303.8,318.1,304.9,316.5,304.9z"/>
	<path class="st4" d="M288,220.2c-0.3,2.9-0.6,5.9-1,9.9c-0.4-2.1-0.6-3.1-0.8-4.2c0.1-1.9,0.3-3.8,0.4-5.8
		C287.1,220.1,287.5,220.2,288,220.2z"/>
	<path class="st2" d="M357.1,377.7c-3.2,4-2.6,8.1-0.3,12.2c0.4,0.6,0.7,1.3,1,2c1.3,3.3,0.7,4.1-2.7,3.8c-8-0.7-15.9-1.4-23.9-0.2
		c-0.4,0.1-0.8,0-1.1,0.1c-2.8,0.9-7.1,0.9-7.2,4c0,2.3,4.4,2.4,7.1,3c-1.3,1.2-3,1.1-4.3,1.7c-1,0.5-2.3,0.7-2.4,2.1
		c-0.1,1.3,1,1.9,1.9,2.6c11.4,8.6,23.9,10.4,37.4,6.1c0.1,0,0.2,0,0.4,0c0.1,1,0.3,2,0.4,3c0.6,4-0.5,5.5-4.5,6.1
		c-9.6,1.3-19.3,2.5-28.9,3.8c-0.6,0.1-1.2,0.4-1.7,0.6c-3.3,0.3-6.6,0.6-9.9,1c-4.6,0.6-5.6,0-7.2-4.6c-0.7-1.9-0.2-4.4-2.6-5.4
		c-0.3-6.7-3.3-12.7-5.2-19c-2.4-8-5.1-15.8-7.7-23.8c-0.6-2.1-1.2-4.3-1.7-6.4c-0.8-3,0.5-4.8,3.5-5.4c2.9-0.6,5.9-1,8.8-1.6
		c1.3-0.3,2.8-0.1,3.6-1.5c1.2,0.4,2.5,0.4,3.7,0.1c6.2-1.1,12.5-2.3,18.7-3.4c5.4-0.9,10.8-1.8,16.1-2.7c3.4-0.6,5.2,0.7,5.8,4
		C355.1,365.7,356.1,371.7,357.1,377.7z"/>
	<path class="st5" d="M308.6,419.4c2.4,1.1,1.9,3.6,2.6,5.4c1.6,4.5,2.6,5.2,7.2,4.6c3.3-0.4,6.6-0.7,9.9-1
		c0.5,7.7-0.4,15.5,0.8,23.2c0.2,1.6-0.6,1.9-1.9,2c-7,0.3-13.9-1-20.8-1.7c-1.7-0.2-1.9-1.5-1.6-2.8
		C306.2,439.2,306.5,429.2,308.6,419.4z"/>
	<path class="st3" d="M321,279.4c-7.5-0.4-14.9-1.1-21.9-4.1c-1.9-0.8-4.3-1.7-4.2-4.2c0-2.6,2.4-3.6,4.5-4.4
		c11.5-4.1,22-2.4,31.4,5.6c1.1,1,2.5,2,2.1,3.7c-0.4,1.9-2.2,2.2-3.7,2.6C326.5,279.4,323.7,279.4,321,279.4z"/>
	<path class="st5" d="M332.2,358.5c-6.2,1.1-12.5,2.3-18.7,3.4c0.6-15.2-0.4-30.3-3.4-45.2c2.4,2,3.2,4.9,4.6,7.4
		c0.7,1.3,1.5,2.5,2.6,4.4c1.8-4.4,3.4-8.2,5-12c0.5-1.2,0.5-2.7,2-3.4c1.9,4.8,3.8,9.6,5.9,15c3.2-4.8,3.4-10.7,6.3-15.2
		c1.9,4.6,3.7,9.1,5.6,13.7c-3.9,9.6-7.5,19.4-9.5,29.6C332.4,357,332.3,357.7,332.2,358.5z"/>
	<path class="st0" d="M385.9,398c-0.4,1-0.8,1.9-1.2,2.9c-1.2,0-2.4,0.1-3.7,0.1c0-4,0-7.9,0-12.5
		C383.1,391.8,383.4,395.5,385.9,398z"/>
	<path class="st2" d="M296.1,347.1c2.1,1.9,4.2,3.7,7,6.2c-6.1,0.9-7.5-3.7-10.6-5.6c-2.1-2.1-4.1-4.2-6.1-6.4c-0.7-0.8-2-1.6-1-2.8
		c1.2-1.3,1.9,0.2,2.7,0.9C290.8,342,293.4,344.5,296.1,347.1z"/>
</g>
</svg>
