<?xml version="1.0" encoding="utf-8"?>
<!-- Generator: Adobe Illustrator 23.0.3, SVG Export Plug-In . SVG Version: 6.00 Build 0)  -->
<svg version="1.1" id="Layer_1" xmlns="http://www.w3.org/2000/svg" xmlns:xlink="http://www.w3.org/1999/xlink" x="0px" y="0px"
	 viewBox="0 0 24 30" style="enable-background:new 0 0 24 30;" xml:space="preserve">
<style type="text/css">
	.st0{fill:#00F8C4;}
</style>
<title>Arrow - left</title>
<g>
	<path class="st0" d="M12,23c6.1,0,11-4.9,11-11S18.1,1,12,1S1,5.9,1,12S5.9,23,12,23z M5.1,11.6c0.1-0.1,0.1-0.2,0.2-0.3l3-3
		c0.4-0.4,1-0.4,1.4,0c0.4,0.4,0.4,1,0,1.4L8.4,11H18c0.6,0,1,0.4,1,1s-0.4,1-1,1H8.4l1.3,1.3c0.4,0.4,0.5,1,0.1,1.4s-1,0.5-1.4,0.1
		l-0.1-0.1l-3-3C5,12.4,4.9,12,5.1,11.6L5.1,11.6z"/>
</g>
</svg>
