<?xml version="1.0" encoding="utf-8"?>
<!-- Generator: Adobe Illustrator 23.0.3, SVG Export Plug-In . SVG Version: 6.00 Build 0)  -->
<svg version="1.1" id="Layer_1" xmlns="http://www.w3.org/2000/svg" xmlns:xlink="http://www.w3.org/1999/xlink" x="0px" y="0px"
	 viewBox="0 0 1024 1280" style="enable-background:new 0 0 1024 1280;" xml:space="preserve">
<style type="text/css">
	.st0{fill:#02F7C4;}
	.st1{fill:#5E58FF;}
</style>
<circle class="st0" cx="467.3" cy="773.1" r="203.3"/>
<path class="st1" d="M489.1,692.9h-16.9v-32.8h16.9V692.9z M468.2,660.1H452v32.8h16.1V660.1z M371.8,807.1c6-6.3,6.5-16.4,1.2-23.1
	l-23.4,24.4C356.4,813.8,365.7,813.4,371.8,807.1z M510.1,660.1h-16.9v32.8h16.9V660.1z M551.7,660.1h-16.5v32.8h16.9L551.7,660.1z
	 M370.2,781.1c-7.3-5.9-17.7-4.6-23.4,2.9c-4.8,6.3-4.8,15.5,0,21.8L370.2,781.1z M531.1,660.1h-16.9v32.8h16.9V660.1z M558.5,734.9
	c-12.5-6.7-20.6-19.7-20.6-34v-3.8h-71.8v3.8c-0.4,14.3-8.5,27.7-20.6,34c-10.5,5.9-17.3,17.2-17.3,29.8v8.4h147.2v-8.4
	C575.4,752.1,569,740.7,558.5,734.9z M495.2,829.4v14.3h13.7v-14.3c0-1.3,0.8-2.1,2-2.1h13.7V813h-13.7c-1.2,0-2-0.8-2-2.1v-14.3
	h-13.7v14.3c0,1.3-0.8,2.1-2,2.1h-13.7v14.3h13.7C494,827.3,495.2,828.1,495.2,829.4z M428.2,777.3h147.2v86.1H442.8V863
	c0-8-4.4-15.5-11.3-19.3l-3.6-2.1L428.2,777.3z M475.4,829.4c0,1.3,0.8,2.1,2,2.1l0,0h13.7v14.3c0,1.3,0.8,2.1,2,2.1h17.7
	c1.2,0,2-0.8,2-2.1v-14.3h13.7c1.2,0,2-0.8,2-2.1v-18.5c0-1.3-0.8-2.1-2-2.1h-13.7v-14.3c0-1.3-0.8-2.1-2-2.1l0,0h-17.7
	c-1.2,0-2,0.8-2,2.1v14.3h-13.7c-1.2,0-2,0.8-2,2.1l0,0C475.4,810.9,475.4,829.4,475.4,829.4z M440.3,873.5
	c-0.8,1.3-1.6,2.5-2.4,3.8c-0.4,0.4-0.8,0.8-0.8,0.8c-0.8,0.8-1.2,1.3-2,2.1c-0.4,0.4-0.8,0.8-1.2,0.8c-0.8,0.4-1.6,0.8-2,1.3
	c-0.4,0.4-1.2,0.4-1.6,0.8c-0.4,0.4-0.8,0.4-1.6,0.8v3.4c0,8.4,6.5,15.1,14.5,15.1h117.8c8.1,0,14.5-6.7,14.5-15.1v-20.2H442.3
	C441.9,869.7,441.1,871.8,440.3,873.5L440.3,873.5z M407.7,872.2c-3.2-3.4-7.7-5-12.1-5H375v35.7h20.6c9.7,0,17.3-8,17.3-18.1
	c0-0.8,0-2.1-0.4-2.9C411.7,878.5,410.1,874.7,407.7,872.2L407.7,872.2z M393.9,863l14.5-27.7l-17.7-10.1c-8.5-4.6-19-1.3-23.4,7.1
	c-4.4,8.8-1.2,19.3,6.9,24.4l11.3,6.3H393.9z M333.4,884.8c0,9.7,7.7,17.6,16.9,18.1l0,0H371v-35.7h-20.2
	C341.1,867.2,333.4,875.1,333.4,884.8z M434.7,874.7c2-2.5,3.6-5.9,4-9.2c0-0.8,0-1.3,0-2.1c0-6.7-3.6-12.6-8.9-16l-17.7-10.1
	l-13.3,26c0.4,0,0.4,0,0.8,0c0.4,0,0.8,0,1.2,0.4c0.8,0.4,1.6,0.4,2.4,0.8c0.4,0,0.8,0.4,1.2,0.4c0.8,0.4,1.6,0.8,2.4,1.3
	c0.4,0.4,0.8,0.4,1.2,0.8c1.2,0.8,2,1.7,2.8,2.5s1.6,1.7,2,2.5c0,0.4,0.4,0.4,0.4,0.8c0.4,0.8,0.8,1.3,1.2,1.7
	c0,0.4,0.4,0.8,0.4,1.3c0.4,0.8,0.4,1.3,0.8,1.7c0,0.4,0.4,0.8,0.4,1.3c0,0.4,0.4,0.8,0.4,1.3c3.2,1.3,6.5,1.3,9.7,0.4
	C429,879.3,432.3,877.2,434.7,874.7L434.7,874.7L434.7,874.7z"/>
</svg>
