<?xml version="1.0" encoding="utf-8"?>
<!-- Generator: Adobe Illustrator 23.0.3, SVG Export Plug-In . SVG Version: 6.00 Build 0)  -->
<svg version="1.1" id="Layer_1" xmlns="http://www.w3.org/2000/svg" xmlns:xlink="http://www.w3.org/1999/xlink" x="0px" y="0px"
	 viewBox="0 0 1024 1280" style="enable-background:new 0 0 1024 1280;" xml:space="preserve">
<style type="text/css">
	.st0{fill:#02F7C4;}
	.st1{fill:#5E58FF;}
</style>
<circle class="st0" cx="467.3" cy="773.1" r="203.3"/>
<g>
	<ellipse class="st1" cx="467.3" cy="620.7" rx="36.1" ry="32.8"/>
	<path class="st1" d="M405.6,808.1c1,0,1.8-0.1,2.7-0.3c6.9-1.3,11.4-7.6,9.8-13.9c-5.9-25.4-8.2-45.1-8.2-60.1c0-13,1.8-22.3,4-29
		c3.1-8.3,6.6-12.4,9.8-14.7v56.4v27.6V917c0,9.9,8.8,18.1,19.9,18.1c10.9,0,19.9-8,19.9-18.1V785.4h7.4V917
		c0,9.9,8.8,18.1,19.9,18.1c10.9,0,19.9-8,19.9-18.1V774.1v-27.6V690c1.9,1.5,4,3.5,6.1,6.9c4,6.4,7.9,17.8,7.9,37.2
		c0,15-2.2,34.7-8.3,59.9c-1.4,6.3,2.9,12.5,9.8,13.9c1,0.1,1.8,0.3,2.7,0.3c5.9,0,11.2-3.8,12.5-9.2c6.3-26.5,8.8-47.7,8.8-64.9
		c0-14.7-1.9-26.5-5.3-36.2c-5-14.3-13.5-23.6-22.5-28.7c-9-5.1-17.3-5.8-22-5.8c-0.3,0-0.6,0-1,0c-0.5,0-1-0.1-1.6-0.1h-61.8
		c-0.5,0-1,0-1.6,0.1c-0.2,0-0.5,0-0.6,0c-3.1,0-7.7,0.3-13.3,2c-8.2,2.5-18.1,8.7-25,19.8c-7.1,11.1-11.2,26.7-11.2,48.8
		c0,17.2,2.6,38.4,8.8,64.9C394.4,804.3,399.7,808.1,405.6,808.1z"/>
</g>
</svg>
