<?xml version="1.0" encoding="utf-8"?>
<!-- Generator: Adobe Illustrator 23.0.3, SVG Export Plug-In . SVG Version: 6.00 Build 0)  -->
<svg version="1.1" id="Layer_1" xmlns="http://www.w3.org/2000/svg" xmlns:xlink="http://www.w3.org/1999/xlink" x="0px" y="0px"
	 viewBox="0 0 24 30" style="enable-background:new 0 0 24 30;" xml:space="preserve">
<style type="text/css">
	.st0{fill:#5E58FF;}
</style>
<title>Notification alt 2</title>
<g>
	<path class="st0" d="M23,17.2c0.1-0.4-0.1-0.8-0.4-1C21,15.1,20,13.3,20,11.4V10c0-4-3-7.4-7-7.9V1c0-0.6-0.4-1-1-1s-1,0.4-1,1v1.1
		C7,2.6,4,6,4,10v1.4c0,1.9-1,3.7-2.5,4.8c-0.5,0.3-0.6,0.9-0.3,1.4C1.3,17.8,1.5,18,1.8,18c2.6,0.5,5.3,0.9,8,1
		c-1.1,1.2-1.1,3.1,0.1,4.2s3.1,1.1,4.2-0.1c1.1-1.2,1.1-3,0-4.1c2.7-0.1,5.4-0.5,8-1C22.6,17.9,22.9,17.6,23,17.2z M12,22
		c-0.6,0-1-0.4-1-1s0.4-1,1-1s1,0.4,1,1S12.6,22,12,22z"/>
</g>
</svg>
