<?xml version="1.0" encoding="utf-8"?>
<!-- Generator: Adobe Illustrator 23.0.3, SVG Export Plug-In . SVG Version: 6.00 Build 0)  -->
<svg version="1.1" id="Layer_1" xmlns="http://www.w3.org/2000/svg" xmlns:xlink="http://www.w3.org/1999/xlink" x="0px" y="0px"
	 viewBox="0 0 1024 1280" style="enable-background:new 0 0 1024 1280;" xml:space="preserve">
<style type="text/css">
	.st0{fill:#02F7C4;}
	.st1{fill:#5E58FF;}
</style>
<circle class="st0" cx="467.3" cy="773.1" r="203.3"/>
<g>
	<path class="st1" d="M502.5,653.3c0,17.8-15.7,32.2-35.3,32.2c-19.5,0-35.3-14.4-35.3-32.2s15.7-32.2,35.3-32.2
		C486.8,621,502.5,635.4,502.5,653.3z M561.4,776.8l-23.6-44.6c-12.9-24.5-21.7-41.2-47.5-41.2h-46c-25.8,0-34.6,16.7-47.5,41.2
		l-23.6,44.6c-3.5,6.6-0.6,14.4,6.6,17.8c7.2,3.2,16.1,0.6,19.5-6l33.1-58.2v164.1c0,8.1,6.9,14.4,15.7,14.4s15.7-6.3,15.7-14.4
		v-84.1h6.9v84.1c0,8.1,6.9,14.4,15.7,14.4s15.7-6.3,15.7-14.4V730.4l32.7,57.9c3.5,6.6,12.3,9.2,19.5,6
		C561.7,791.4,564.9,783.4,561.4,776.8z"/>
</g>
</svg>
