<?xml version="1.0" encoding="utf-8"?>
<!-- Generator: Adobe Illustrator 23.0.3, SVG Export Plug-In . SVG Version: 6.00 Build 0)  -->
<svg version="1.1" id="Layer_1" xmlns="http://www.w3.org/2000/svg" xmlns:xlink="http://www.w3.org/1999/xlink" x="0px" y="0px"
	 viewBox="0 0 1024 1280" style="enable-background:new 0 0 1024 1280;" xml:space="preserve">
<style type="text/css">
	.st0{fill:#02F7C4;}
	.st1{fill:#5E58FF;}
</style>
<circle class="st0" cx="467.3" cy="773.1" r="203.3"/>
<g>
	<path class="st1" d="M374.5,924.8c3.8,0,6.9-3,6.9-6.8V764.4c0-3,1.1-5.8,2.9-8c1,4.9,5.2,8.7,10.6,8.8c0.1,0,0.1,0,0.3,0
		c4.9,0,9.1-3.1,10.4-7.6c1.2,2,2.1,4.3,2.1,6.8l0,0c0,3.8,3,6.8,6.9,6.8c3.8,0,6.9-3,6.9-6.8c0-10-5.8-18.8-14.1-23.3
		c1.4-8.8,3.7-15.8,6.5-21.4c5.9-11.5,13.9-17.2,20.9-20.4v82.2v0.1c-3.4,17.6-8.8,56.4-8.8,127.6c0,9.7,8,17.6,17.8,17.6
		c9.9,0,17.8-7.8,17.8-17.6c0-49.1,2.6-81.9,5.2-102c0.8-6,1.5-10.8,2.2-14.8h8.9c3,16.9,7.4,53.2,7.4,116.8c0,9.7,8,17.6,17.8,17.6
		s17.8-7.8,17.8-17.6c0-71.1-5.4-110-8.8-127.6v-0.1v-75.9c0.7,0.8,1.2,1.5,1.9,2.4c7.3,9.7,15.8,27.1,19.1,57.8
		c0.5,5.5,5.4,9.7,10.8,9.7c0.4,0,0.8,0,1.2,0c6-0.7,10.4-6,9.7-11.9c-3.8-36.1-14.7-58.1-25.3-71.1c-10.6-13-20.9-16.9-22.5-17.3
		c-0.7-0.3-1.5-0.4-2.2-0.4c-1.2-0.4-2.5-0.7-3.8-0.7h-1.4c-6.6,7.2-16.1,11.6-26.5,11.6c-2.6,0-5.4-0.3-8-0.9
		c-2.7-0.7-5.5-1.6-8-2.8c-3.8-1.9-7.4-4.6-10.3-7.8l-0.1-0.1h-1.4c-1.4,0-2.7,0.3-3.8,0.7c-5.8,0.9-15.9,3.5-26.5,10.8
		c-7.7,5.3-15.5,13.3-21.1,24.6c-4.1,8.1-7.3,18-8.8,29.6c-10.3,3.7-17.6,13.3-17.6,24.6V918C367.7,921.8,370.7,924.8,374.5,924.8z"
		/>
	<path class="st1" d="M453.6,676.4c3.6,2.7,7.7,4.7,12.4,5.8c11.1,2.6,22.2-0.9,29.8-8.3c4.3-4.1,7.4-9.3,8.9-15.6
		c4-17.1-6.7-34.2-24-38.2c-17.4-3.9-34.7,6.6-38.9,23.8c-2.6,11.2,1.1,22.5,8.8,29.9c0.8,0.8,1.8,1.6,2.7,2.3
		C453.5,676.4,453.6,676.4,453.6,676.4z"/>
</g>
</svg>
