<?xml version="1.0" encoding="utf-8"?>
<!-- Generator: Adobe Illustrator 23.0.3, SVG Export Plug-In . SVG Version: 6.00 Build 0)  -->
<svg version="1.1" id="Layer_1" xmlns="http://www.w3.org/2000/svg" xmlns:xlink="http://www.w3.org/1999/xlink" x="0px" y="0px"
	 viewBox="0 0 1024 1280" style="enable-background:new 0 0 1024 1280;" xml:space="preserve">
<style type="text/css">
	.st0{fill:#02F7C4;}
	.st1{fill:#5E58FF;}
</style>
<circle class="st0" cx="467.3" cy="773.1" r="203.3"/>
<title>medicine and healthcare 02 solid</title>
<path class="st1" d="M389.2,877.3h61.4c5.8,0,10.5-5.6,10.5-12.4v-103c0-6.8-4.7-12.4-10.5-12.4h-61.4c-5.8,0-10.5,5.6-10.5,12.4
	v103C378.7,871.7,383.4,877.3,389.2,877.3z M409.4,842.2h-10.5v-16.5h10.5V842.2z M440.9,842.2h-10.5v-16.5h10.5V842.2z
	 M385.7,761.8c0-2.3,1.6-4.1,3.5-4.1h61.4c1.9,0,3.5,1.9,3.5,4.1V801H448v-16.5c0-4.5-3.2-8.2-7-8.2h-10.5c-3.9,0-7,3.7-7,8.2V801
	h-7v-16.5c0-4.5-3.2-8.2-7-8.2h-10.5c-3.9,0-7,3.7-7,8.2V801h-6.1V761.8z M440.9,784.5V801h-10.5v-16.5H440.9z M409.4,784.5V801
	h-10.5v-16.5H409.4z M385.7,809.2h68.4v33H448v-16.5c0-4.5-3.2-8.2-7-8.2h-10.5c-3.9,0-7,3.7-7,8.2v16.5h-7v-16.5
	c0-4.5-3.2-8.2-7-8.2h-10.5c-3.9,0-7,3.7-7,8.2v16.5h-6.1V809.2z"/>
<path class="st1" d="M535.7,842.2h-7c0-2.3-1.6-4.1-3.5-4.1s-3.5,1.9-3.5,4.1v8.2c0,2.3,1.6,4.1,3.5,4.1s3.5-1.9,3.5-4.1h7
	c1.9,0,3.5-1.9,3.5-4.1C539.2,844.1,537.6,842.2,535.7,842.2z"/>
<polygon class="st1" points="461.5,712.4 473,712.4 473,702.7 481.3,702.7 481.3,689.1 473,689.1 473,679.4 461.5,679.4 
	461.5,689.1 453.2,689.1 453.2,702.7 461.5,702.7 "/>
<path class="st1" d="M576,737.1c1.9,0,3.5-1.9,3.5-4.1v-66c0-6.8-4.7-12.4-10.5-12.4H365.5c-5.8,0-10.5,5.6-10.5,12.4v66
	c0,2.3,1.6,4.1,3.5,4.1h2.6v152.7c-3.5,0.4-6.1,3.9-6.1,8v12.4c0,4.5,3.2,8.2,7,8.2h210.5c3.9,0,7-3.7,7-8.2v-12.4
	c0-3.3-1.8-6.4-4.4-7.6V737.1H576z M446.2,689.1c0-4.5,3.2-8.2,7-8.2h1.2v-1.4c0-4.5,3.2-8.2,7-8.2h11.8c3.9,0,7,3.7,7,8.2v1.4h1.1
	c3.9,0,7,3.7,7,8.2l0,0v13.8c0,4.5-3.2,8.2-7,8.2h-1.2v1.2c0,4.5-3.2,8.2-7,8.2h-11.8c-3.9,0-7-3.7-7-8.2v-1.4h-1.1
	c-3.9,0-7-3.7-7-8.2V689.1z M546.2,889.6h-52.6v-68c0-17.1,11.8-30.9,26.3-30.9s26.3,13.8,26.3,30.9V889.6z M568.1,745.6
	c-0.4,0-0.5,0-0.9-0.2h-87.7c-3.9,0-7,3.7-7,8.2V766c0,4.5,3.2,8.2,7,8.2h87.7c0.4,0,0.5,0,0.9-0.2v115.6h-14.9v-68
	c0-21.6-14.9-39.2-33.3-39.2c-18.4,0-33.3,17.5-33.3,39.2v68H368.2V737.1h200V745.6z"/>
</svg>
