<?xml version="1.0" encoding="utf-8"?>
<!-- Generator: Adobe Illustrator 23.0.3, SVG Export Plug-In . SVG Version: 6.00 Build 0)  -->
<svg version="1.1" id="Layer_1" xmlns="http://www.w3.org/2000/svg" xmlns:xlink="http://www.w3.org/1999/xlink" x="0px" y="0px"
	 viewBox="0 0 24 30" style="enable-background:new 0 0 24 30;" xml:space="preserve">
<style type="text/css">
	.st0{fill:#00F8C4;}
</style>
<title>Arrow - right</title>
<g>
	<path class="st0" d="M12,1C5.9,1,1,5.9,1,12s4.9,11,11,11s11-4.9,11-11S18.1,1,12,1z M18.9,12.4c-0.1,0.1-0.1,0.2-0.2,0.3l-3,3
		c-0.4,0.4-1.1,0.3-1.4-0.1c-0.3-0.4-0.3-0.9,0-1.3l1.3-1.3H6c-0.6,0-1-0.4-1-1s0.4-1,1-1h9.6l-1.3-1.3c-0.4-0.4-0.3-1.1,0.1-1.4
		c0.4-0.3,0.9-0.3,1.3,0l3,3C19,11.6,19.1,12,18.9,12.4L18.9,12.4z"/>
</g>
</svg>
