<?xml version="1.0" encoding="utf-8"?>
<!-- Generator: Adobe Illustrator 23.0.3, SVG Export Plug-In . SVG Version: 6.00 Build 0)  -->
<svg version="1.1" id="Layer_1" xmlns="http://www.w3.org/2000/svg" xmlns:xlink="http://www.w3.org/1999/xlink" x="0px" y="0px"
	 viewBox="0 0 24 30" style="enable-background:new 0 0 24 30;" xml:space="preserve">
<style type="text/css">
	.st0{fill:#5E58FF;}
</style>
<title>Search alt 1</title>
<g>
	<path class="st0" d="M17.7,16.3c3.5-4.3,2.9-10.6-1.4-14.1S5.8-0.6,2.3,3.7s-2.9,10.6,1.4,14.1c3.7,3,9,3,12.7,0l6,6
		c0.4,0.4,1.1,0.3,1.4-0.1c0.3-0.4,0.3-0.9,0-1.3L17.7,16.3z M10,18c-4.4,0-8-3.6-8-8s3.6-8,8-8s8,3.6,8,8S14.4,18,10,18z"/>
	<circle class="st0" cx="10" cy="10" r="6"/>
</g>
</svg>
