<?xml version="1.0" encoding="utf-8"?>
<!-- Generator: Adobe Illustrator 23.0.3, SVG Export Plug-In . SVG Version: 6.00 Build 0)  -->
<svg version="1.1" id="Layer_1" xmlns="http://www.w3.org/2000/svg" xmlns:xlink="http://www.w3.org/1999/xlink" x="0px" y="0px"
	 viewBox="0 0 24 30" style="enable-background:new 0 0 24 30;" xml:space="preserve">
<style type="text/css">
	.st0{fill:#5E58FF;}
</style>
<title>Settings alt 1</title>
<g>
	<path class="st0" d="M23.2,9l-1.8-0.4c-0.1-0.3-0.2-0.7-0.4-1l1-1.5c0.3-0.4,0.2-0.9-0.1-1.3l-2.8-2.8c-0.3-0.3-0.9-0.4-1.3-0.1
		l-1.5,1c-0.3-0.2-0.7-0.3-1-0.4L15,0.8C14.9,0.3,14.5,0,14,0h-4C9.5,0,9.1,0.3,9,0.8L8.7,2.6C8.3,2.7,8,2.8,7.7,3L6.2,2
		C5.8,1.7,5.3,1.8,4.9,2.1L2.1,4.9C1.8,5.3,1.7,5.8,2,6.2l1,1.5C2.8,8,2.7,8.3,2.6,8.7L0.8,9C0.3,9.1,0,9.5,0,10v4
		c0,0.5,0.3,0.9,0.8,1l1.8,0.4c0.1,0.3,0.2,0.7,0.4,1l-1,1.5c-0.3,0.4-0.2,0.9,0.1,1.3l2.8,2.8c0.3,0.3,0.9,0.4,1.3,0.1l1.5-1
		c0.3,0.2,0.7,0.3,1,0.4L9,23.2c0.1,0.5,0.5,0.8,1,0.8h4c0.5,0,0.9-0.3,1-0.8l0.4-1.8c0.3-0.1,0.7-0.2,1-0.4l1.5,1
		c0.4,0.3,0.9,0.2,1.3-0.1l2.8-2.8c0.3-0.4,0.3-0.9,0-1.3l-1-1.5c0.2-0.3,0.3-0.7,0.4-1l1.8-0.3c0.5-0.1,0.8-0.5,0.8-1v-4
		C24,9.5,23.7,9.1,23.2,9z M12,18c-3.3,0-6-2.7-6-6s2.7-6,6-6s6,2.7,6,6S15.3,18,12,18z"/>
	<circle class="st0" cx="12" cy="12" r="4"/>
</g>
</svg>
