<?xml version="1.0" encoding="utf-8"?>
<!-- Generator: Adobe Illustrator 23.0.3, SVG Export Plug-In . SVG Version: 6.00 Build 0)  -->
<svg version="1.1" id="Layer_1" xmlns="http://www.w3.org/2000/svg" xmlns:xlink="http://www.w3.org/1999/xlink" x="0px" y="0px"
	 viewBox="0 0 24 30" style="enable-background:new 0 0 24 30;" xml:space="preserve">
<style type="text/css">
	.st0{fill:#5E58FF;}
</style>
<title>Share alt 1</title>
<g>
	<path class="st0" d="M5,8c-2.2,0-4,1.8-4,4c0,2.2,1.8,4,4,4c1.1,0,2.1-0.4,2.9-1.2l7.3,4.2c-0.1,0.3-0.1,0.7-0.2,1c0,2.2,1.8,4,4,4
		s4-1.8,4-4c0-2.2-1.8-4-4-4c-1.1,0-2.1,0.4-2.9,1.2L8.8,13c0.2-0.7,0.2-1.4,0-2.1l7.3-4.2c1.5,1.6,4.1,1.6,5.7,0.1s1.6-4.1,0.1-5.7
		c-1.5-1.6-4.1-1.6-5.7-0.1C15.4,1.8,15,2.9,15,4c0,0.3,0.1,0.7,0.2,1L7.9,9.2C7.1,8.4,6.1,8,5,8z"/>
</g>
</svg>
