<?xml version="1.0" encoding="utf-8"?>
<!-- Generator: Adobe Illustrator 23.0.3, SVG Export Plug-In . SVG Version: 6.00 Build 0)  -->
<svg version="1.1" id="Layer_1" xmlns="http://www.w3.org/2000/svg" xmlns:xlink="http://www.w3.org/1999/xlink" x="0px" y="0px"
	 viewBox="0 0 1024 1280" style="enable-background:new 0 0 1024 1280;" xml:space="preserve">
<style type="text/css">
	.st0{fill:#02F7C4;}
	.st1{fill:#5E58FF;}
</style>
<circle class="st0" cx="467.3" cy="773.1" r="203.3"/>
<title>medicine and healthcare 02 solid</title>
<g>
	<ellipse class="st1" cx="471.9" cy="667.5" rx="27.7" ry="27.5"/>
	<path class="st1" d="M404.5,822.8c0.5,0.1,1,0.1,1.5,0.1c3.8,0,7.1-2.7,7.9-6.5c8.5-46.2,18-70.9,25.3-83.6l-20.7,105.5h26.7v69.1
		c0,6.7,5.5,12.2,12.3,12.2s12.3-5.5,12.3-12.2v-69.1h4.1v69.1c0,6.7,5.5,12.2,12.3,12.2c6.8,0,12.3-5.5,12.3-12.2v-69.1h26.7
		l-20.6-105.5c1.1,2,2.3,4.3,3.7,7c6.7,14.1,14.5,37.8,21.7,76.5c0.7,3.8,4.1,6.5,7.9,6.5c0.5,0,1,0,1.5-0.1
		c4.3-0.7,7.3-4.9,6.4-9.3c-9.5-51.8-20.3-78.4-29.7-92.8c-4.7-7.2-9-11.2-12.8-13.7c-1.5-0.9-2.7-1.6-3.9-2l0,0
		c0,0-9.1-4.5-27.4-4.5c-18.2,0-27.4,4.5-27.4,4.5l0,0c-1.2,0.5-2.6,1.1-3.9,2c-5.7,3.7-12.7,11-20.1,26.9
		c-7.4,15.9-15.3,40.6-22.4,79.5C397.4,817.7,400.2,821.9,404.5,822.8z"/>
</g>
</svg>
